HIERARCHY
ROOT Hips
{
	OFFSET 0.00 0.00 0.00
	CHANNELS 6 Xposition Yposition Zposition Zrotation Yrotation Xrotation
	JOINT Spine
	{
		OFFSET 0.00000 0.00000 3.80709
		CHANNELS 3 Zrotation Yrotation Xrotation
		JOINT Spine1
		{
			OFFSET 0.00000 -0.66110 3.74925
			CHANNELS 3 Zrotation Yrotation Xrotation
			JOINT Spine2
			{
				OFFSET 0.00000 -0.33181 3.79261
				CHANNELS 3 Zrotation Yrotation Xrotation
				JOINT Spine3
				{
					OFFSET 0.00000 -0.00000 3.80709
					CHANNELS 3 Zrotation Yrotation Xrotation
					JOINT Neck
					{
						OFFSET 0.00000 0.48948 4.89483
						CHANNELS 3 Zrotation Yrotation Xrotation
						JOINT Neck1
						{
							OFFSET 0.00000 0.18562 2.12173
							CHANNELS 3 Zrotation Yrotation Xrotation
							JOINT Head
							{
								OFFSET 0.00000 0.36984 2.09748
								CHANNELS 3 Zrotation Yrotation Xrotation
								End Site
								{
									OFFSET 0.00000 -0.00001 3.59976
								}
							}
						}
					}
					JOINT RightShoulder
					{
						OFFSET 0.00000 -0.00000 3.42638
						CHANNELS 3 Yrotation Zrotation Xrotation
						JOINT RightArm
						{
							OFFSET 6.20556 -0.00000 0.00000
							CHANNELS 3 Zrotation Yrotation Xrotation
							JOINT RightForeArm
							{
								OFFSET 11.98982 -0.00000 0.00000
								CHANNELS 3 Zrotation Yrotation Xrotation
								JOINT RightHand
								{
									OFFSET 8.94491 -0.00000 0.00000
									CHANNELS 3 Yrotation Zrotation Xrotation
									JOINT RightHandMiddle1
									{
										OFFSET 3.86714 -0.00000 0.00000
										CHANNELS 3 Yrotation Zrotation Xrotation
										JOINT RightHandMiddle2
										{
											OFFSET 2.06409 -0.00000 0.00000
											CHANNELS 3 Xrotation Yrotation Zrotation
											JOINT RightHandMiddle3
											{
												OFFSET 1.29302 -0.00000 0.00000
												CHANNELS 3 Xrotation Yrotation Zrotation
												End Site
												{
													OFFSET 0.82729 -0.00000 0.00000
												}
											}
										}
									}
									JOINT RightHandRing
									{
										OFFSET 0.09915 -0.17954 -0.09915
										CHANNELS 3 Zrotation Yrotation Xrotation
										JOINT RightHandRing1
										{
											OFFSET 3.43702 -0.31017 0.00000
											CHANNELS 3 Yrotation Zrotation Xrotation
											JOINT RightHandRing2
											{
												OFFSET 1.93316 -0.17446 0.00000
												CHANNELS 3 Xrotation Yrotation Zrotation
												JOINT RightHandRing3
												{
													OFFSET 1.28980 -0.11640 0.00000
													CHANNELS 3 Xrotation Yrotation Zrotation
													End Site
													{
														OFFSET 0.81920 -0.07393 0.00000
													}
												}
											}
										}
										JOINT RightHandPinky
										{
											OFFSET 0.08261 -0.18773 -0.09915
											CHANNELS 3 Zrotation Yrotation Xrotation
											JOINT RightHandPinky1
											{
												OFFSET 2.91281 -0.65136 0.00000
												CHANNELS 3 Yrotation Zrotation Xrotation
												JOINT RightHandPinky2
												{
													OFFSET 1.51743 -0.33933 0.00000
													CHANNELS 3 Xrotation Yrotation Zrotation
													JOINT RightHandPinky3
													{
														OFFSET 0.99864 -0.22332 0.00000
														CHANNELS 3 Xrotation Yrotation Zrotation
														End Site
														{
															OFFSET 0.74053 -0.16560 0.00000
														}
													}
												}
											}
										}
									}
									JOINT RightHandIndex
									{
										OFFSET 0.09915 0.17954 -0.09915
										CHANNELS 3 Zrotation Yrotation Xrotation
										JOINT RightHandIndex1
										{
											OFFSET 3.76758 0.34000 0.00000
											CHANNELS 3 Yrotation Zrotation Xrotation
											JOINT RightHandIndex2
											{
												OFFSET 1.98813 0.17942 0.00000
												CHANNELS 3 Xrotation Yrotation Zrotation
												JOINT RightHandIndex3
												{
													OFFSET 1.19521 0.10786 0.00000
													CHANNELS 3 Xrotation Yrotation Zrotation
													End Site
													{
														OFFSET 0.74912 0.06760 0.00000
													}
												}
											}
										}
										JOINT RightHandThumb1
										{
											OFFSET 0.08261 0.18773 -0.29744
											CHANNELS 3 Zrotation Yrotation Xrotation
											JOINT RightHandThumb2
											{
												OFFSET 2.45633 0.90164 0.00000
												CHANNELS 3 Yrotation Zrotation Xrotation
												JOINT RightHandThumb3
												{
													OFFSET 1.53922 0.56500 0.00000
													CHANNELS 3 Xrotation Yrotation Zrotation
													End Site
													{
														OFFSET 0.96720 0.35503 0.00000
													}
												}
											}
										}
									}
								}
							}
						}
					}
					JOINT LeftShoulder
					{
						OFFSET 0.00000 -0.00000 3.42638
						CHANNELS 3 Yrotation Zrotation Xrotation
						JOINT LeftArm
						{
							OFFSET -6.20556 -0.00000 0.00000
							CHANNELS 3 Zrotation Yrotation Xrotation
							JOINT LeftForeArm
							{
								OFFSET -11.98982 -0.00000 0.00000
								CHANNELS 3 Zrotation Yrotation Xrotation
								JOINT LeftHand
								{
									OFFSET -8.94491 -0.00000 0.00000
									CHANNELS 3 Yrotation Zrotation Xrotation
									JOINT LeftHandMiddle1
									{
										OFFSET -3.53137 -0.00000 0.00000
										CHANNELS 3 Yrotation Zrotation Xrotation
										JOINT LeftHandMiddle2
										{
											OFFSET -1.89421 -0.00000 0.00000
											CHANNELS 3 Xrotation Yrotation Zrotation
											JOINT LeftHandMiddle3
											{
												OFFSET -1.18243 -0.00000 0.00000
												CHANNELS 3 Xrotation Yrotation Zrotation
												End Site
												{
													OFFSET -0.75907 -0.00000 0.00000
												}
											}
										}
									}
									JOINT LeftHandRing
									{
										OFFSET -0.09915 -0.15386 -0.09915
										CHANNELS 3 Zrotation Yrotation Xrotation
										JOINT LeftHandRing1
										{
											OFFSET -3.14442 -0.28376 0.00000
											CHANNELS 3 Yrotation Zrotation Xrotation
											JOINT LeftHandRing2
											{
												OFFSET -1.77265 -0.15997 0.00000
												CHANNELS 3 Xrotation Yrotation Zrotation
												JOINT LeftHandRing3
												{
													OFFSET -1.18194 -0.10666 0.00000
													CHANNELS 3 Xrotation Yrotation Zrotation
													End Site
													{
														OFFSET -0.75165 -0.06783 0.00000
													}
												}
											}
										}
										JOINT LeftHandPinky
										{
											OFFSET -0.08492 -0.16214 -0.09915
											CHANNELS 3 Zrotation Yrotation Xrotation
											JOINT LeftHandPinky1
											{
												OFFSET -2.66923 -0.59689 0.00000
												CHANNELS 3 Yrotation Zrotation Xrotation
												JOINT LeftHandPinky2
												{
													OFFSET -1.39260 -0.31141 0.00000
													CHANNELS 3 Xrotation Yrotation Zrotation
													JOINT LeftHandPinky3
													{
														OFFSET -0.91801 -0.20529 0.00000
														CHANNELS 3 Xrotation Yrotation Zrotation
														End Site
														{
															OFFSET -0.67947 -0.15194 0.00000
														}
													}
												}
											}
										}
									}
									JOINT LeftHandIndex
									{
										OFFSET -0.09915 0.15386 -0.09915
										CHANNELS 3 Zrotation Yrotation Xrotation
										JOINT LeftHandIndex1
										{
											OFFSET -3.44268 0.31068 0.00000
											CHANNELS 3 Yrotation Zrotation Xrotation
											JOINT LeftHandIndex2
											{
												OFFSET -1.82607 0.16479 0.00000
												CHANNELS 3 Xrotation Yrotation Zrotation
												JOINT LeftHandIndex3
												{
													OFFSET -1.09509 0.09883 0.00000
													CHANNELS 3 Xrotation Yrotation Zrotation
													End Site
													{
														OFFSET -0.68735 0.06203 0.00000
													}
												}
											}
										}
										JOINT LeftHandThumb1
										{
											OFFSET -0.08492 0.16214 -0.29744
											CHANNELS 3 Zrotation Yrotation Xrotation
											JOINT LeftHandThumb2
											{
												OFFSET -2.24995 0.82589 0.00000
												CHANNELS 3 Yrotation Zrotation Xrotation
												JOINT LeftHandThumb3
												{
													OFFSET -1.41110 0.51797 0.00000
													CHANNELS 3 Xrotation Yrotation Zrotation
													End Site
													{
														OFFSET -0.88745 0.32575 0.00000
													}
												}
											}
										}
									}
								}
							}
						}
					}
				}
			}
		}
	}
	JOINT RightUpLeg
	{
		OFFSET 4.10948 0.00000 0.00000
		CHANNELS 3 Zrotation Yrotation Xrotation
		JOINT RightLeg
		{
			OFFSET 0.00000 0.00000 -16.03257
			CHANNELS 3 Xrotation Yrotation Zrotation
			JOINT RightFoot
			{
				OFFSET 0.00000 0.00000 -15.81429
				CHANNELS 3 Zrotation Yrotation Xrotation
				JOINT RightToeBase
				{
					OFFSET 0.00000 5.17902 -1.32242
					CHANNELS 3 Xrotation Yrotation Zrotation
					End Site
					{
						OFFSET 0.00000 2.39290 0.00000
					}
				}
			}
		}
	}
	JOINT LeftUpLeg
	{
		OFFSET -4.10948 0.00000 0.00000
		CHANNELS 3 Zrotation Yrotation Xrotation
		JOINT LeftLeg
		{
			OFFSET 0.00000 0.00000 -16.03257
			CHANNELS 3 Xrotation Yrotation Zrotation
			JOINT LeftFoot
			{
				OFFSET 0.00000 0.00000 -15.81429
				CHANNELS 3 Zrotation Yrotation Xrotation
				JOINT LeftToeBase
				{
					OFFSET 0.00000 5.17902 -1.32242
					CHANNELS 3 Xrotation Yrotation Zrotation
					End Site
					{
						OFFSET 0.00000 2.09643 0.00000
					}
				}
			}
		}
	}
}
MOTION
Frames: 5
Frame Time: 0.008333
 11.0539 32.1852 -100.7328 175.2029 54.1945 99.1258 0.0456 -0.1938 -11.3809 0.0623 -0.1891 -11.3809 0.0434 -0.8492 2.2552 0.0434 -0.8492 2.2552 14.9871 9.2544 -26.7753 18.4227 -1.8804 -11.2666 15.6109 -23.0976 9.4199 -10.4246 7.4009 1.3576 70.7290 35.4331 51.8786 117.1833 -0.0000 10.3543 14.8604 0.4684 -0.1243 -10.4456 -58.9972 -8.9796 -0.0001 69.2865 0.0002 -0.0000 47.4801 0.0001 -0.0541 -0.9516 15.9447 8.7985 -41.6497 6.4679 46.0585 82.8564 -41.1248 3.6679 35.3326 -1.1685 -1.0848 -3.5709 7.5089 14.7861 -15.8267 7.3645 42.9924 71.8439 -31.8487 10.9174 40.2628 -4.0124 8.8372 -0.4114 12.6210 43.7692 -60.2283 37.8520 -21.6114 76.2324 17.0329 -3.7787 36.1397 1.2333 5.0874 11.0994 -50.2468 11.3596 0.4240 -4.8788 -1.4029 4.0884 -2.4466 9.1054 -5.8815 0.9409 -2.9365 -43.3154 33.4770 -111.2730 0.0000 -7.9995 -10.6661 4.6203 0.8692 4.8771 -22.2814 1.8530 -0.0010 -86.8199 -0.0010 -0.0000 -37.7782 -0.0000 2.7199 0.7807 -0.2507 -4.0782 -33.9160 -1.9725 93.6870 -84.8328 88.5154 4.9056 -43.4585 1.9560 1.0229 -2.9198 5.2780 -6.8496 -29.2949 -2.0237 32.3964 -67.3455 21.9066 14.4183 -48.0740 6.4579 -1.6202 1.0900 -13.8560 -11.8014 -26.8919 -6.3579 -138.0719 -82.3083 -132.6578 -3.1365 -31.2281 -0.8768 -15.2534 -5.4327 -16.7757 4.2125 0.6311 1.4356 -2.2993 -7.0315 4.1358 1.6796 -16.2297 -4.9484 -28.7210 0.0000 -0.0000 4.8101 21.4598 18.3036 -4.7730 0.0000 -0.0000 27.7945 26.4653 18.4681 -34.4574 0.0000 -0.0000 -0.2613 -11.1331 -0.8730 -4.6723 -0.0000 -0.0000
 11.0606 32.1775 -100.7336 175.1869 54.1952 99.1310 0.0371 -0.1943 -11.3852 0.0539 -0.1903 -11.3852 0.0352 -0.8435 2.2381 0.0352 -0.8435 2.2381 14.9766 9.2289 -26.8212 18.4054 -1.8824 -11.2404 15.5709 -23.0589 9.5541 -10.4503 7.3827 1.3577 70.7407 35.4387 51.8679 117.1621 -0.0000 10.4814 14.8175 0.5263 -0.1392 -10.3125 -58.7565 -8.8425 -0.0001 69.7448 0.0002 -0.0000 47.8787 0.0001 -0.0808 -0.9383 15.9702 8.7732 -41.5853 6.4424 48.5369 83.1333 -43.5848 3.6950 35.5319 -1.1843 -1.1199 -3.5560 7.4566 14.6967 -16.0241 7.3643 43.5255 72.0110 -32.3555 10.9751 40.4100 -4.0498 8.8948 -0.3662 12.7031 43.5248 -59.7223 37.4448 -22.8411 76.9122 18.2289 -3.7914 36.2312 1.2408 4.9465 11.1617 -50.3574 11.3460 0.3221 -4.8587 -1.4743 4.3121 -2.5769 9.1386 -5.8921 0.9461 -2.8505 -43.4766 33.4161 -111.2672 0.0000 -8.0902 -10.6379 4.6142 0.8657 4.8441 -22.4420 1.8530 -0.0010 -86.7509 -0.0010 -0.0000 -37.7657 -0.0000 2.7133 0.7785 -0.2245 -4.0741 -34.0318 -1.9778 94.2098 -84.8296 89.0360 4.9043 -43.4510 1.9551 1.0172 -2.9047 5.3018 -6.8098 -29.3770 -2.0215 32.6296 -67.4753 22.1219 14.4340 -48.1042 6.4695 -1.6243 1.1072 -13.8350 -11.8624 -27.0441 -6.4184 -137.1298 -82.4440 -131.7240 -3.1353 -31.2184 -0.8762 -15.2877 -5.4067 -16.7320 4.3089 0.6349 1.4665 -2.2911 -7.0033 4.1198 1.6809 -16.2356 -4.9208 -28.7948 -0.0000 -0.0000 4.8493 21.5061 18.3617 -4.8085 0.0000 -0.0000 27.8404 26.4908 18.4564 -34.4428 0.0000 -0.0000 -0.3827 -11.1301 -0.6973 -4.4939 0.0000 -0.0000
 11.0669 32.1701 -100.7342 175.1678 54.1956 99.1332 0.0270 -0.1873 -11.3902 0.0432 -0.1843 -11.3903 0.0245 -0.8501 2.2301 0.0245 -0.8501 2.2301 14.9719 9.2052 -26.8689 18.3922 -1.8756 -11.2182 15.5402 -23.0027 9.6789 -10.4712 7.3840 1.3607 70.7367 35.4380 51.8450 117.1374 -0.0000 10.4096 14.8879 0.4742 -0.1261 -10.4060 -58.9218 -8.9384 -0.0001 69.2997 0.0002 -0.0000 47.5077 0.0001 -0.0612 -0.9500 15.9467 8.7907 -41.5568 6.4524 45.8924 82.8366 -40.9601 3.6638 35.3025 -1.1662 -1.1012 -3.5690 7.4907 14.7647 -15.7394 7.3328 42.8382 71.7948 -31.7023 10.9066 40.2352 -4.0055 8.8525 -0.3973 12.6424 43.7711 -60.1342 37.8211 -21.7812 76.3307 17.1978 -3.7792 36.1432 1.2336 5.0543 11.1155 -50.2705 11.3653 0.4022 -4.8788 -1.4156 4.1280 -2.4697 9.1831 -5.9239 0.9559 -2.6783 -43.6066 33.3264 -111.3002 0.0000 -8.0657 -10.6264 4.6567 0.8727 4.8484 -22.4170 1.8527 -0.0010 -86.9013 -0.0011 -0.0000 -37.8536 -0.0000 2.7144 0.7772 -0.2438 -4.1004 -34.0429 -1.9913 94.9592 -84.8242 89.7824 4.9163 -43.5211 1.9634 1.0094 -2.9154 5.3014 -6.8384 -29.3976 -2.0324 32.5516 -67.4321 22.0499 14.4340 -48.1042 6.4695 -1.6230 1.1022 -13.8411 -11.8188 -26.9880 -6.3844 -138.3010 -82.2743 -132.8848 -3.1439 -31.2885 -0.8807 -15.2895 -5.4170 -16.7575 4.2567 0.5871 1.4520 -2.3028 -7.0437 4.1427 1.7028 -16.2282 -4.9058 -28.8552 -0.0000 0.0000 4.8624 21.5266 18.3985 -4.7657 0.0000 0.0000 27.8895 26.5183 18.4488 -34.4292 -0.0000 0.0000 -0.5009 -11.1318 -0.5297 -4.3167 0.0000 -0.0000
 11.0750 32.1630 -100.7364 175.1487 54.1681 99.1426 0.0126 -0.1842 -11.3957 0.0286 -0.1824 -11.3957 0.0100 -0.8528 2.2046 0.0100 -0.8528 2.2046 14.9640 9.1884 -26.8599 18.3717 -1.8577 -11.1862 15.5188 -22.9279 9.7453 -10.5110 7.3802 1.3653 70.7403 35.3879 51.8474 117.1067 -0.0000 10.3376 14.9905 0.4800 -0.1285 -9.4164 -57.4466 -7.9577 -0.0001 68.5256 0.0001 -0.0000 47.2165 0.0001 -0.0734 -0.9567 15.9615 8.7734 -40.3499 6.3114 42.3812 82.3746 -37.4780 3.6195 34.9749 -1.1407 -1.1397 -3.5406 7.4309 14.7310 -15.1083 7.1667 42.1413 71.5678 -31.0407 10.7811 39.9124 -3.9247 8.8898 -0.3438 12.7565 42.2516 -58.5888 35.8500 -20.5720 75.5963 16.0247 -3.6956 35.5361 1.1847 4.9584 11.1013 -50.2385 11.3156 0.2790 -4.8381 -1.4924 4.3691 -2.6101 9.2405 -5.9266 0.9624 -2.6205 -43.7014 33.2874 -111.2999 0.0000 -8.0029 -10.5778 4.7021 0.8770 4.8665 -22.3247 1.8524 -0.0010 -86.9312 -0.0011 -0.0000 -37.8710 -0.0000 2.7198 0.7811 -0.2576 -4.0981 -33.9821 -1.9863 95.0161 -84.8237 89.8390 4.9189 -43.5359 1.9652 1.0218 -2.9220 5.2781 -6.8808 -29.3610 -2.0408 32.5051 -67.4062 22.0069 14.4329 -48.1022 6.4687 -1.6206 1.0932 -13.8624 -11.8076 -26.9138 -6.3652 -138.6883 -82.2158 -133.2685 -3.1439 -31.2883 -0.8806 -15.2814 -5.4315 -16.7863 4.1701 0.5744 1.4247 -2.3086 -7.0636 4.1539 1.6976 -16.2265 -4.8919 -28.9186 0.0000 -0.0000 4.8571 21.5536 18.4292 -4.7739 0.0000 0.0000 27.8815 26.5426 18.4275 -34.4154 -0.0000 -0.0000 -0.6004 -11.1424 -0.3681 -4.1637 -0.0000 0.0000
 11.0785 32.1579 -100.7397 175.1394 54.1927 99.1551 0.0163 -0.2001 -11.3952 0.0337 -0.1979 -11.3952 0.0152 -0.8430 2.1885 0.0152 -0.8430 2.1885 14.9290 9.2066 -26.8886 18.3371 -1.8350 -11.1690 15.4785 -22.8893 9.8282 -10.5444 7.3724 1.3683 70.7061 35.3514 51.8146 117.0800 -0.0000 10.3311 14.9435 0.4923 -0.1314 -9.4369 -57.4055 -7.9715 -0.0001 68.5244 0.0001 -0.0000 47.2450 0.0001 -0.0775 -0.9405 15.9777 8.7486 -40.2626 6.2840 41.8907 82.3030 -36.9919 3.6093 34.8993 -1.1348 -1.1392 -3.5219 7.4117 14.7271 -14.9646 7.1307 41.6818 71.4136 -30.6049 10.7393 39.8044 -3.8979 8.9096 -0.3312 12.8004 42.2990 -58.5047 35.8640 -20.8152 75.7506 16.2603 -3.6931 35.5174 1.1832 4.9095 11.1248 -50.2639 11.3273 0.2588 -4.8412 -1.5075 4.4167 -2.6377 9.2978 -5.9572 0.9734 -2.5081 -43.7750 33.2155 -111.3274 0.0000 -8.1379 -10.6454 4.7630 0.8942 4.8751 -22.3712 1.8593 -0.0009 -86.6302 -0.0010 -0.0000 -37.6925 -0.0000 2.7116 0.7900 -0.2528 -4.0645 -34.0255 -1.9727 91.7973 -84.8409 86.6333 4.8926 -43.3830 1.9471 1.0258 -2.9059 5.2749 -6.8638 -29.4231 -2.0431 32.2474 -67.2617 21.7691 14.3951 -48.0290 6.4406 -1.6148 1.0992 -13.8591 -11.8397 -26.9539 -6.3900 -136.7955 -82.4905 -131.3926 -3.1266 -31.1486 -0.8717 -15.2910 -5.3846 -16.7501 4.2359 0.6292 1.4433 -2.2908 -7.0021 4.1191 1.7601 -16.2084 -4.8729 -28.9949 -0.0000 0.0000 4.8372 21.5719 18.4606 -4.7711 -0.0000 -0.0000 27.9628 26.5780 18.4041 -34.3709 0.0000 0.0000 -0.7277 -11.1910 -0.2280 -4.0031 0.0000 0.0000
